<?xml version="1.0" standalone="no"?>
<!DOCTYPE svg PUBLIC "-//W3C//DTD SVG 20010904//EN"
 "http://www.w3.org/TR/2001/REC-SVG-20010904/DTD/svg10.dtd">
<svg version="1.0" xmlns="http://www.w3.org/2000/svg"
 width="2000.000000pt" height="2000.000000pt" viewBox="0 0 2000.000000 2000.000000"
 preserveAspectRatio="xMidYMid meet">
<metadata>
Created by potrace 1.11, written by Peter Selinger 2001-2013
</metadata>
<g transform="translate(0.000000,2000.000000) scale(0.100000,-0.100000)"
fill="#000000" stroke="none">
<path d="M1906 17443 c-1 -1 -112 -5 -247 -9 -134 -3 -271 -7 -304 -9 -33 -2
-77 -4 -97 -4 l-37 -1 1 -278 1 -277 441 1 c446 0 494 -3 591 -36 253 -85 427
-380 489 -825 8 -60 18 -128 21 -150 4 -22 8 -510 11 -1085 5 -1357 13 -2403
18 -2460 2 -25 7 -81 10 -125 4 -44 9 -98 11 -120 9 -95 17 -162 21 -185 2
-14 6 -50 9 -80 3 -30 8 -62 10 -70 2 -8 7 -37 11 -65 3 -27 8 -59 10 -70 2
-11 9 -49 15 -85 19 -119 70 -363 106 -500 19 -74 36 -144 39 -155 3 -11 6
-24 8 -30 69 -253 188 -584 303 -844 132 -296 336 -650 498 -863 11 -14 29
-39 40 -54 75 -106 277 -329 392 -435 73 -67 245 -196 325 -244 9 -5 48 -28
85 -51 63 -38 193 -109 253 -139 14 -7 43 -22 65 -33 150 -76 557 -237 790
-312 72 -23 139 -45 150 -50 60 -26 673 -194 821 -225 12 -3 77 -18 145 -34
105 -25 280 -63 354 -77 11 -2 34 -7 50 -11 17 -3 37 -7 45 -9 8 -1 49 -9 90
-17 99 -21 235 -46 285 -53 22 -3 47 -7 56 -10 9 -2 32 -7 50 -9 19 -3 45 -7
59 -10 44 -9 193 -34 240 -40 25 -3 57 -8 72 -11 15 -3 41 -7 58 -9 42 -6 109
-15 141 -20 14 -3 41 -7 60 -9 19 -3 103 -14 188 -25 84 -12 160 -21 168 -21
12 0 14 -184 10 -1352 -1 -744 -6 -1362 -9 -1373 -3 -11 -9 -47 -12 -80 -55
-474 -251 -883 -539 -1126 -101 -85 -287 -169 -432 -195 -16 -3 -48 -9 -70
-14 -62 -14 -191 -35 -280 -45 -27 -3 -63 -8 -80 -10 -16 -2 -64 -6 -105 -10
-41 -3 -97 -8 -125 -10 -83 -7 -382 -18 -517 -19 l-128 -1 0 -57 c-1 -32 -1
-114 -1 -183 0 -69 0 -138 1 -154 l0 -29 3460 0 c3205 0 3460 1 3460 17 3 107
-1 396 -6 400 -3 3 -69 6 -147 7 -145 1 -480 14 -507 19 -8 1 -53 6 -100 9
-47 4 -101 9 -120 11 -19 3 -55 7 -80 10 -25 3 -56 7 -70 10 -14 2 -43 7 -65
10 -23 3 -52 7 -65 10 -14 3 -41 8 -60 11 -146 25 -351 96 -435 149 -66 43
-218 191 -277 270 -157 213 -268 476 -317 750 -6 33 -13 69 -15 80 -2 12 -7
48 -11 80 -4 33 -10 74 -13 90 -3 17 -7 636 -9 1377 l-4 1348 23 1 c13 1 32 3
43 4 11 1 45 6 75 9 30 4 62 9 70 11 8 2 44 7 80 10 36 3 72 8 80 10 8 2 35 7
60 10 25 3 57 8 71 11 15 2 47 6 70 9 24 3 70 10 102 16 32 5 72 12 90 14 18
3 73 12 122 20 50 9 117 21 150 26 50 8 134 23 345 63 228 43 785 168 935 210
28 8 111 31 185 51 871 237 1563 540 1959 857 338 271 675 715 931 1227 94
189 187 400 239 546 18 50 37 101 43 115 62 150 206 689 254 950 30 162 40
224 49 290 3 25 8 56 10 70 9 49 14 86 20 145 3 33 8 76 10 95 11 89 15 121
21 205 3 50 8 110 10 135 5 56 13 1043 18 2420 3 580 7 1075 11 1100 3 25 10
81 15 125 41 333 141 586 288 732 74 73 167 126 272 154 32 9 176 13 505 14
l460 0 2 278 2 277 -37 1 c-20 0 -64 2 -97 4 -352 17 -1101 24 -1275 12 -229
-16 -395 -37 -570 -72 -55 -11 -68 -14 -155 -34 -523 -124 -877 -340 -1096
-666 -153 -228 -306 -618 -403 -1025 -21 -90 -47 -201 -52 -225 -3 -18 -48
-263 -58 -325 -9 -48 -35 -226 -41 -275 -3 -27 -8 -61 -10 -75 -4 -25 -28
-239 -41 -360 -7 -73 -10 -109 -19 -225 -3 -44 -8 -100 -10 -125 -2 -25 -7
-90 -10 -145 -3 -55 -8 -125 -10 -155 -5 -62 -16 -306 -21 -455 -1 -55 -5
-341 -8 -635 -5 -532 -14 -1071 -21 -1205 -7 -149 -16 -332 -20 -380 -7 -108
-17 -231 -20 -260 -1 -16 -6 -61 -9 -100 -4 -38 -11 -104 -16 -145 -5 -41 -12
-97 -15 -125 -15 -120 -58 -351 -90 -480 -122 -492 -289 -800 -610 -1120 -66
-67 -136 -134 -155 -151 -85 -73 -325 -234 -348 -234 -6 0 -12 -4 -14 -9 -7
-20 -326 -168 -538 -251 -71 -28 -357 -119 -425 -136 -5 -1 -82 -20 -171 -42
-88 -22 -173 -43 -190 -45 -16 -3 -67 -13 -114 -22 -197 -37 -249 -45 -430
-69 -197 -25 -254 -31 -412 -41 l-108 -7 -1 3649 c0 3768 0 3831 6 3998 14
401 76 639 221 856 97 145 215 248 357 314 68 31 272 98 335 110 15 3 38 7 52
10 239 53 574 83 948 84 l172 1 0 304 0 304 -3250 0 -3250 0 0 -304 0 -304
178 -1 c330 -2 505 -14 772 -54 157 -23 376 -75 445 -104 11 -5 51 -21 88 -36
185 -75 349 -237 455 -450 55 -111 103 -272 118 -397 3 -29 8 -55 9 -58 4 -6
14 -157 20 -280 6 -123 6 -270 5 -4029 l0 -3613 -122 7 c-66 4 -128 8 -137 10
-9 2 -45 6 -81 9 -75 8 -107 12 -208 26 -40 5 -91 12 -115 15 -23 3 -51 7 -62
9 -11 2 -40 7 -65 11 -54 9 -70 12 -135 25 -27 5 -61 12 -75 14 -14 2 -47 10
-75 16 -27 6 -61 14 -75 16 -85 16 -361 91 -496 135 -406 130 -749 298 -1017
496 -82 61 -338 305 -393 375 -49 62 -154 208 -154 214 0 4 -6 15 -14 23 -21
24 -121 216 -156 301 -68 164 -162 494 -185 655 -6 42 -9 56 -19 115 -13 75
-16 99 -31 215 -15 127 -21 182 -30 280 -4 55 -7 90 -20 260 -22 290 -33 725
-41 1585 -2 305 -6 598 -9 650 -7 183 -15 366 -20 435 -2 39 -6 117 -10 175
-3 58 -8 125 -10 150 -3 25 -7 79 -10 120 -3 41 -7 95 -10 120 -11 106 -14
139 -20 205 -4 39 -8 81 -10 95 -2 14 -7 50 -10 80 -3 30 -10 82 -15 115 -5
33 -12 84 -15 114 -4 30 -9 63 -11 75 -2 12 -6 32 -8 46 -3 14 -8 48 -11 75
-5 40 -29 171 -50 275 -79 385 -151 640 -260 910 -60 151 -193 398 -235 440
-3 3 -24 30 -48 61 -81 107 -227 230 -377 316 -245 141 -576 248 -940 303 -38
6 -81 13 -95 15 -32 5 -98 13 -175 19 -33 3 -94 9 -135 12 -67 7 -738 12 -744
7z"/>
</g>
</svg>
