<?xml version="1.0"?>
<svg width="1394.42" height="1429.38" transform="rotate(90)"
xmlns="http://www.w3.org/2000/svg" xmlns:svg="http://www.w3.org/2000/svg" version="1.1">
 <!-- Generator: Adobe Illustrator 29.5.1, SVG Export Plug-In . SVG Version: 2.1.0 Build 141)  -->
 <defs>
  <style>.st0 {
        fill:rgb(255, 255, 255);
        stroke-width: 4px;
        stroke: white;
      }</style>
 </defs>
 <g class="layer" stroke-width="10">
  <title>Layer 1</title>
  <g id="svg_1" transform="translate(1381.09 45.962) scale(1.01259 1.01259) translate(-1381.09 -45.962) translate(30.2808 1400.04) matrix(2.95093 0 0 2.95093 -1381.99 -2039.94)">
   <path class="st0" d="m557.12,601.73c18.22,18.22 39.43,32.52 63.05,42.51c24.46,10.34 50.44,15.59 77.21,15.59s52.76,-5.24 77.21,-15.59c23.62,-9.99 44.84,-24.29 63.05,-42.51s32.52,-39.43 42.51,-63.05c10.34,-24.46 15.59,-50.44 15.59,-77.21s-5.24,-52.76 -15.59,-77.21c-9.99,-23.62 -24.29,-44.84 -42.51,-63.05c-18.22,-18.22 -39.43,-32.52 -63.05,-42.51c-24.46,-10.34 -50.44,-15.59 -77.21,-15.59s-52.76,5.25 -77.21,15.59c-23.62,9.99 -44.84,24.29 -63.05,42.51c-18.22,18.22 -32.52,39.43 -42.51,63.05c-10.34,24.46 -15.59,50.44 -15.59,77.21s5.24,52.76 15.59,77.21c9.99,23.62 24.29,44.84 42.51,63.05zm278.39,-2.14c-17.94,17.94 -38.83,32.02 -62.09,41.86c-24.08,10.19 -49.66,15.35 -76.03,15.35s-51.95,-5.16 -76.03,-15.35c-23.26,-9.84 -44.15,-23.92 -62.09,-41.86c-4.45,-4.45 -8.73,-9.16 -12.72,-13.99c7.05,-2.54 13.91,-5.7 20.42,-9.39c19.71,11.25 42.26,17.19 65.22,17.19s45.5,-5.94 65.21,-17.18c19.71,11.24 42.25,17.18 65.21,17.18s45.96,-6.06 65.83,-17.54c6.39,3.67 13.15,6.83 20.09,9.4c-4.08,4.96 -8.45,9.79 -13,14.34l-0.02,-0.01zm-265.52,-251.09c18.88,-10.43 40.38,-15.94 62.19,-15.94s43.3,5.51 62.18,15.93c-9.06,5.49 -17.49,12.11 -25.05,19.68c-20.1,20.1 -32.92,45.41 -37.14,73.27c-5.93,-38.81 -28.55,-72.64 -62.18,-92.94zm58.83,91.22c-9.3,-26.98 -34.42,-44.98 -63.08,-44.98c-24.35,0 -46.64,13.2 -58.42,34.53c5.68,-22.2 17.33,-42.56 33.72,-58.95c7.79,-7.79 16.52,-14.55 25.93,-20.09c32.98,19.33 55.44,51.87 61.86,89.5l-0.01,-0.01zm158.33,-55.33c-13.1,18.17 -21.36,39.45 -23.94,61.61c-3.43,-29.67 -16.47,-56.55 -37.74,-77.83c-7.57,-7.57 -15.99,-14.19 -25.05,-19.68c18.87,-10.42 40.37,-15.93 62.18,-15.93s43.79,5.63 62.83,16.29c-15,9.16 -27.87,21.12 -38.27,35.54l-0.01,0zm41.27,-33.8c9.17,5.47 17.69,12.11 25.32,19.73c16.39,16.39 28.03,36.76 33.72,58.95c-11.79,-21.33 -34.07,-34.53 -58.42,-34.53c-26.19,0 -49.88,15.31 -60.73,39.12c3.75,-17.23 10.91,-33.27 21.31,-47.69c10.49,-14.55 23.55,-26.52 38.81,-35.58l-0.01,0zm-41.27,187.94c10.4,14.42 23.27,26.38 38.27,35.54c-19.03,10.66 -40.75,16.29 -62.83,16.29s-43.3,-5.51 -62.18,-15.93c9.06,-5.49 17.49,-12.11 25.05,-19.68c21.27,-21.27 34.31,-48.16 37.74,-77.83c2.58,22.17 10.84,43.44 23.94,61.61l0.01,0zm-18.85,-49.46c10.85,23.81 34.54,39.12 60.73,39.12c24.35,0 46.64,-13.2 58.42,-34.53c-5.68,22.2 -17.33,42.56 -33.72,58.95c-7.63,7.62 -16.14,14.26 -25.32,19.73c-15.26,-9.06 -28.32,-21.03 -38.81,-35.58c-10.4,-14.43 -17.57,-30.46 -21.31,-47.69l0.01,0zm-70.91,39.11c26.19,0 49.89,-15.31 60.74,-39.13c-5.22,24.03 -17.23,45.98 -34.8,63.55c-7.79,7.79 -16.52,14.55 -25.94,20.1c-9.42,-5.54 -18.15,-12.3 -25.94,-20.1c-17.57,-17.57 -29.59,-39.52 -34.8,-63.55c10.85,23.81 34.54,39.13 60.74,39.13zm-63.7,-66.72c0,-35.12 28.57,-63.69 63.69,-63.69s63.69,28.57 63.69,63.69s-28.57,63.69 -63.69,63.69s-63.69,-28.57 -63.69,-63.69zm89.63,-91.14c17.57,17.57 29.59,39.52 34.8,63.55c-10.85,-23.81 -34.54,-39.13 -60.74,-39.13s-49.89,15.31 -60.74,39.13c5.21,-24.03 17.23,-45.98 34.8,-63.55c7.79,-7.79 16.52,-14.55 25.94,-20.1c9.42,5.54 18.15,12.3 25.94,20.1zm-91.15,111.16c4.21,27.85 17.04,53.17 37.14,73.27c7.57,7.57 15.99,14.19 25.05,19.68c-18.87,10.42 -40.37,15.93 -62.18,15.93s-43.31,-5.51 -62.19,-15.94c33.63,-20.3 56.24,-54.13 62.18,-92.94zm-65.2,91.22c-9.42,-5.54 -18.14,-12.3 -25.93,-20.09c-16.39,-16.39 -28.03,-36.76 -33.72,-58.95c11.79,21.33 34.07,34.53 58.42,34.53c28.66,0 53.79,-18 63.08,-44.99c-6.41,37.63 -28.87,70.18 -61.86,89.5l0.01,0zm310.4,-35.2c-6.88,16.26 -15.91,31.48 -26.85,45.26c-6.61,-2.38 -13.04,-5.3 -19.11,-8.69c8.84,-5.43 17.07,-11.92 24.46,-19.32c15.63,-15.63 27.09,-34.88 33.27,-55.84c-2.56,13.19 -6.52,26.15 -11.77,38.59zm14.12,-76.04c0,5.74 -0.39,11.56 -1.15,17.27c-7.71,27.33 -32.92,46.42 -61.31,46.42c-35.12,0 -63.69,-28.57 -63.69,-63.69s28.57,-63.69 63.69,-63.69c28.39,0 53.6,19.09 61.31,46.4c0.76,5.73 1.15,11.55 1.15,17.29zm-14.12,-76.03c5.26,12.43 9.21,25.4 11.77,38.59c-6.18,-20.96 -17.64,-40.21 -33.27,-55.84c-7.39,-7.39 -15.62,-13.89 -24.46,-19.32c6.07,-3.38 12.5,-6.31 19.11,-8.69c10.94,13.77 19.97,29 26.85,45.26zm-318.11,-62.09c17.94,-17.94 38.83,-32.02 62.09,-41.86c24.08,-10.19 49.66,-15.35 76.03,-15.35s51.95,5.16 76.03,15.35c23.26,9.84 44.15,23.92 62.09,41.86c4.55,4.55 8.93,9.38 13,14.34c-6.95,2.56 -13.71,5.73 -20.09,9.4c-19.87,-11.48 -42.63,-17.54 -65.83,-17.54s-45.5,5.94 -65.21,17.18c-19.71,-11.24 -42.25,-17.18 -65.21,-17.18s-45.51,5.94 -65.22,17.19c-6.5,-3.69 -13.37,-6.85 -20.42,-9.39c3.99,-4.83 8.27,-9.54 12.72,-13.99l0.02,-0.01zm-41.86,62.09c6.93,-16.39 16.06,-31.73 27.12,-45.6c6.7,2.35 13.23,5.27 19.42,8.67c-9.05,5.49 -17.48,12.11 -25.04,19.67c-15.63,15.63 -27.09,34.88 -33.27,55.84c2.56,-13.19 6.52,-26.15 11.77,-38.59l0,0.01zm-14.12,76.03c0,-5.74 0.39,-11.56 1.15,-17.27c7.71,-27.33 32.92,-46.42 61.31,-46.42c35.12,0 63.69,28.57 63.69,63.69s-28.57,63.69 -63.69,63.69c-28.39,0 -53.6,-19.09 -61.31,-46.4c-0.76,-5.73 -1.15,-11.55 -1.15,-17.29zm35.61,93.29c7.56,7.56 15.99,14.18 25.04,19.67c-6.18,3.4 -12.71,6.32 -19.42,8.67c-11.06,-13.86 -20.18,-29.2 -27.12,-45.6c-5.26,-12.43 -9.21,-25.4 -11.77,-38.59c6.18,20.96 17.64,40.21 33.27,55.84l0,0.01z" id="svg_2"/>
   <path class="st0" d="m909.01,404.74c0.46,1.69 2.05,2.86 3.85,2.86c0.34,0 0.69,-0.04 1.03,-0.13c1.05,-0.27 1.92,-0.92 2.45,-1.84c0.51,-0.88 0.64,-1.9 0.37,-2.88l-0.1,-0.36c-0.47,-1.68 -2.05,-2.85 -3.85,-2.85c-0.35,0 -0.7,0.04 -1.04,0.13c-1.05,0.27 -1.92,0.93 -2.45,1.85c-0.51,0.88 -0.64,1.9 -0.37,2.88l0.1,0.34l0.01,0z" id="svg_3"/>
   <path class="st0" d="m887.16,351.92c0.7,1.19 2.01,1.93 3.41,1.93c0.69,0 1.37,-0.18 1.97,-0.52c0.92,-0.52 1.57,-1.36 1.84,-2.37c0.27,-1 0.12,-2.03 -0.4,-2.92l-0.19,-0.32c-0.7,-1.19 -2.01,-1.93 -3.41,-1.93c-0.69,0 -1.37,0.18 -1.97,0.52c-0.92,0.52 -1.57,1.37 -1.83,2.37c-0.26,1 -0.12,2.03 0.41,2.92l0.18,0.31l-0.01,0.01z" id="svg_4"/>
   <path class="st0" d="m852.36,306.57c0.74,0.74 1.72,1.14 2.76,1.14s2.02,-0.41 2.76,-1.14c1.52,-1.52 1.52,-4 0,-5.52l-0.27,-0.26c-0.74,-0.74 -1.72,-1.14 -2.76,-1.14s-2.02,0.41 -2.76,1.15c-1.52,1.52 -1.52,4 0,5.52l0.26,0.26l0.01,-0.01z" id="svg_5"/>
   <path class="st0" d="m806.71,271.56l0.31,0.18c0.59,0.35 1.26,0.53 1.94,0.53c1.38,0 2.66,-0.75 3.36,-1.96c1.07,-1.88 0.44,-4.29 -1.41,-5.38l-0.33,-0.19c-0.59,-0.35 -1.26,-0.53 -1.93,-0.53c-1.38,0 -2.67,0.76 -3.36,1.97c-1.07,1.88 -0.43,4.29 1.42,5.38z" id="svg_6"/>
   <path class="st0" d="m753.84,249.77l0.34,0.09c0.33,0.09 0.67,0.14 1.01,0.14c1.74,0 3.27,-1.21 3.72,-2.95c0.55,-2.12 -0.67,-4.31 -2.72,-4.88l-0.36,-0.1c-0.33,-0.09 -0.66,-0.13 -0.99,-0.13c-1.75,0 -3.28,1.22 -3.73,2.96c-0.55,2.12 0.68,4.31 2.73,4.87z" id="svg_7"/>
   <path class="st0" d="m697.05,244.16l0.51,0c3,0 5.44,-2.56 5.44,-5.7s-2.44,-5.7 -5.44,-5.7l-0.53,0c-3,0 -5.44,2.57 -5.43,5.71c0,3.14 2.45,5.69 5.45,5.69z" id="svg_8"/>
   <path class="st0" d="m639.31,250.08l0,0c0.34,0 0.68,-0.05 1.01,-0.14l0.34,-0.1c1.69,-0.46 2.86,-2.05 2.86,-3.85c0,-0.34 -0.04,-0.69 -0.13,-1.03c-0.45,-1.74 -1.98,-2.96 -3.72,-2.96c-0.33,0 -0.67,0.05 -1,0.14l-0.36,0.1c-2.05,0.57 -3.27,2.76 -2.72,4.88c0.45,1.74 1.98,2.95 3.72,2.95l0,0.01z" id="svg_9"/>
   <path class="st0" d="m585.58,272.4c0.68,0 1.35,-0.18 1.94,-0.53l0.31,-0.18c1.19,-0.7 1.93,-2.01 1.93,-3.41c0,-0.69 -0.18,-1.37 -0.52,-1.97c-0.69,-1.21 -1.98,-1.97 -3.36,-1.97c-0.68,0 -1.35,0.18 -1.94,0.53l-0.32,0.19c-1.85,1.09 -2.48,3.51 -1.4,5.38c0.69,1.21 1.98,1.96 3.35,1.96l0.01,0z" id="svg_10"/>
   <path class="st0" d="m539.48,307.89c1.04,0 2.02,-0.41 2.76,-1.15l0.26,-0.26c0.74,-0.74 1.14,-1.72 1.14,-2.76s-0.41,-2.02 -1.14,-2.76c-0.74,-0.74 -1.72,-1.14 -2.76,-1.14s-2.02,0.41 -2.76,1.14l-0.26,0.27c-1.52,1.52 -1.52,4 0,5.52c0.74,0.74 1.72,1.14 2.76,1.14z" id="svg_11"/>
   <path class="st0" d="m502.1,353.56c0.6,0.34 1.28,0.52 1.96,0.52l0,0c1.4,0 2.71,-0.74 3.41,-1.94l0.18,-0.31c0.35,-0.59 0.53,-1.26 0.53,-1.94c0,-1.38 -0.75,-2.66 -1.96,-3.35c-0.6,-0.34 -1.28,-0.52 -1.97,-0.52c-1.4,0 -2.71,0.74 -3.41,1.93l-0.19,0.33c-0.52,0.89 -0.66,1.93 -0.4,2.92c0.27,1.01 0.92,1.85 1.84,2.37l0.01,-0.01z" id="svg_12"/>
   <path class="st0" d="m480.82,407.74c0.34,0.09 0.68,0.13 1.03,0.13l0,0c1.8,0 3.38,-1.18 3.85,-2.86l0.09,-0.34c0.09,-0.33 0.14,-0.67 0.14,-1.01c0,-1.74 -1.21,-3.27 -2.95,-3.72c-0.34,-0.09 -0.69,-0.13 -1.04,-0.13c-1.8,0 -3.38,1.17 -3.84,2.85l-0.1,0.36c-0.27,0.98 -0.13,2 0.38,2.88c0.53,0.92 1.4,1.57 2.45,1.84l-0.01,0z" id="svg_13"/>
   <path class="st0" d="m474.38,467.25l0.01,0c3.14,0 5.69,-2.45 5.69,-5.45l0,-0.51c0,-3 -2.56,-5.44 -5.7,-5.44s-5.7,2.44 -5.7,5.44l0,0.53c0,2.99 2.56,5.43 5.7,5.43z" id="svg_14"/>
   <path class="st0" d="m481.57,516.08c-0.35,0 -0.69,0.04 -1.03,0.13c-1.05,0.27 -1.92,0.92 -2.45,1.84c-0.51,0.88 -0.64,1.9 -0.37,2.88l0.1,0.36c0.47,1.68 2.05,2.85 3.84,2.85c0.35,0 0.7,-0.04 1.04,-0.13c1.05,-0.27 1.92,-0.93 2.45,-1.85c0.51,-0.88 0.64,-1.9 0.37,-2.88l-0.1,-0.34c-0.46,-1.69 -2.05,-2.86 -3.85,-2.86z" id="svg_15"/>
   <path class="st0" d="m503.85,569.84c-0.69,0 -1.37,0.18 -1.97,0.52c-0.92,0.52 -1.57,1.36 -1.84,2.37c-0.27,1 -0.12,2.03 0.4,2.92l0.19,0.32c0.7,1.19 2.01,1.93 3.41,1.93c0.69,0 1.37,-0.18 1.98,-0.52c0.92,-0.52 1.57,-1.37 1.83,-2.37c0.26,-1 0.12,-2.03 -0.41,-2.92l-0.18,-0.31c-0.7,-1.19 -2.01,-1.93 -3.41,-1.93l0,-0.01z" id="svg_16"/>
   <path class="st0" d="m539.3,615.97c-1.04,0 -2.02,0.41 -2.76,1.14c-0.74,0.74 -1.14,1.72 -1.14,2.76s0.41,2.02 1.14,2.76l0.27,0.26c0.74,0.74 1.72,1.14 2.76,1.14s2.02,-0.41 2.76,-1.15c0.74,-0.74 1.14,-1.72 1.14,-2.76c0,-1.04 -0.41,-2.02 -1.15,-2.76l-0.26,-0.26c-0.74,-0.74 -1.72,-1.14 -2.76,-1.14l0,0.01z" id="svg_17"/>
   <path class="st0" d="m585.77,659.48l0,0c1.38,0 2.67,-0.76 3.36,-1.97c1.07,-1.88 0.43,-4.29 -1.42,-5.38l-0.31,-0.18c-0.59,-0.35 -1.26,-0.53 -1.94,-0.53c-1.38,0 -2.66,0.75 -3.35,1.96c-1.07,1.88 -0.44,4.29 1.41,5.38l0.33,0.19c0.59,0.35 1.26,0.53 1.93,0.53l-0.01,0z" id="svg_18"/>
   <path class="st0" d="m640.24,673.82c-0.33,-0.09 -0.67,-0.14 -1.01,-0.14c-1.74,0 -3.27,1.21 -3.72,2.95c-0.55,2.12 0.67,4.31 2.72,4.88l0.36,0.1c0.33,0.09 0.66,0.13 0.99,0.13c1.75,0 3.28,-1.22 3.73,-2.96c0.55,-2.12 -0.68,-4.31 -2.73,-4.87l-0.34,-0.1l0,0.01z" id="svg_19"/>
   <path class="st0" d="m696.86,679.53c-3,0 -5.44,2.56 -5.44,5.7s2.44,5.7 5.44,5.7l0.53,0c3,0 5.44,-2.57 5.43,-5.71c0,-3.14 -2.45,-5.69 -5.45,-5.69l-0.51,0z" id="svg_20"/>
   <path class="st0" d="m755.11,673.61c-0.34,0 -0.68,0.05 -1.01,0.14l-0.34,0.1c-1.69,0.46 -2.86,2.05 -2.86,3.85c0,0.35 0.04,0.69 0.13,1.03c0.45,1.74 1.98,2.96 3.72,2.96l0,0c0.33,0 0.67,-0.05 1,-0.14l0.36,-0.1c2.05,-0.57 3.27,-2.76 2.72,-4.88c-0.45,-1.74 -1.98,-2.95 -3.72,-2.95l0,-0.01z" id="svg_21"/>
   <path class="st0" d="m808.84,651.28c-0.68,0 -1.35,0.18 -1.94,0.53l-0.31,0.18c-1.19,0.7 -1.93,2.01 -1.93,3.41c0,0.69 0.18,1.37 0.52,1.97c0.69,1.21 1.98,1.97 3.36,1.97c0.68,0 1.35,-0.18 1.94,-0.53l0.32,-0.19c1.85,-1.09 2.48,-3.51 1.4,-5.38c-0.69,-1.21 -1.98,-1.96 -3.35,-1.96l-0.01,0z" id="svg_22"/>
   <path class="st0" d="m852.18,616.94l-0.26,0.26c-0.74,0.74 -1.14,1.72 -1.14,2.76s0.41,2.02 1.14,2.76c0.74,0.74 1.72,1.14 2.76,1.14s2.02,-0.41 2.76,-1.14l0.26,-0.27c0.74,-0.74 1.14,-1.72 1.14,-2.76s-0.41,-2.02 -1.15,-2.76c-0.74,-0.74 -1.72,-1.14 -2.76,-1.14s-2.03,0.41 -2.76,1.15l0.01,0z" id="svg_23"/>
   <path class="st0" d="m892.32,570.13c-0.6,-0.34 -1.28,-0.52 -1.96,-0.52c-1.4,0 -2.71,0.74 -3.42,1.94l-0.18,0.31c-0.35,0.59 -0.53,1.26 -0.53,1.94c0,1.38 0.75,2.66 1.96,3.35c0.6,0.34 1.28,0.52 1.97,0.52c1.4,0 2.71,-0.74 3.41,-1.93l0.19,-0.33c0.52,-0.89 0.66,-1.93 0.4,-2.92c-0.27,-1.01 -0.92,-1.85 -1.84,-2.37l0,0.01z" id="svg_24"/>
   <path class="st0" d="m911.44,523.75c0.34,0.09 0.69,0.13 1.04,0.13c1.8,0 3.38,-1.17 3.84,-2.85l0.1,-0.36c0.27,-0.98 0.13,-2 -0.38,-2.88c-0.53,-0.92 -1.4,-1.57 -2.45,-1.84c-0.34,-0.09 -0.68,-0.13 -1.03,-0.13c-1.8,0 -3.38,1.18 -3.85,2.86l-0.1,0.34c-0.09,0.33 -0.14,0.67 -0.14,1.01c0,1.74 1.21,3.27 2.95,3.72l0.02,0z" id="svg_25"/>
   <path class="st0" d="m914.34,461.88l0,0.51c0,3 2.56,5.44 5.7,5.44s5.7,-2.44 5.7,-5.44l0,-0.53c0,-2.99 -2.56,-5.43 -5.71,-5.43c-3.14,0 -5.69,2.45 -5.69,5.45z" id="svg_26"/>
  </g>
 </g>
</svg>